{"title":"National Geographic Brilliant Beasts Pigeon Genius 720p HDTV x26","uid":7865894,"size":1173564184,"categoryP":"video","categoryS":"hd___movies","magnet":"?xt=urn:btih:2bb6e90cd9b0787231632f38b7d13fd10e8c3a34&amp;dn=National+Geographic+Brilliant+Beasts+Pigeon+Genius+720p+HDTV+x26&amp;tr=udp%3A%2F%2Ftracker.openbittorrent.com%3A80&amp;tr=udp%3A%2F%2Fopen.demonii.com%3A1337&amp;tr=udp%3A%2F%2Ftracker.coppersurfer.tk%3A6969&amp;tr=udp%3A%2F%2Fexodus.desync.com%3A6969","seeders":0,"leechers":1,"uploader":"9xyz","files":1,"time":1354060869,"description":"Format                         : Matroska\nFormat version                 : Version 1\nFile size                      : 1.09 GiB\nDuration                       : 46mn 48s\nOverall bit rate               : 3 343 Kbps\nEncoded date                   : UTC 2008-09-14 16:38:52\nWriting application            : mkvmerge v2.2.0 ('Turn It On Again') built on Mar  4 2008 12:58:26\nWriting library                : libebml v0.7.7 + libmatroska v0.8.1\n\nVideo\nID                             : 1\nFormat                         : AVC\nFormat/Info                    : Advanced Video Codec\nFormat profile                 : &lt;a class=&quot;__cf_email__&quot; href=&quot;/cdn-cgi/l/email-protection&quot; data-cfemail=&quot;1c54757b745c5029322d&quot;&gt;[email&amp;#160;protected]&lt;/a&gt;&lt;script cf-hash='f9e31' type=&quot;text/javascript&quot;&gt;\n/* &lt;![CDATA[ */!function(){try{var t=&quot;currentScript&quot;in document?document.currentScript:function(){for(var t=document.getElementsByTagName(&quot;script&quot;),e=t.length;e--;)if(t[e].getAttribute(&quot;cf-hash&quot;))return t[e]}();if(t&amp;&amp;t.previousSibling){var e,r,n,i,c=t.previousSibling,a=c.getAttribute(&quot;data-cfemail&quot;);if(a){for(e=&quot;&quot;,r=parseInt(a.substr(0,2),16),n=2;a.length-n;n+=2)i=parseInt(a.substr(n,2),16)^r,e+=String.fromCharCode(i);e=document.createTextNode(e),c.parentNode.replaceChild(e,c)}}}catch(u){}}();/* ]]&gt; */&lt;/script&gt;\nFormat settings, CABAC         : Yes\nFormat settings, ReFrames      : 5 frames\nCodec ID                       : V_MPEG4/ISO/AVC\nDuration                       : 46mn 48s\nBit rate                       : 2 955 Kbps\nWidth                          : 1 280 pixels\nHeight                         : 720 pixels\nDisplay aspect ratio           : 16:9\nFrame rate mode                : Constant\nFrame rate                     : 25.000 fps\nColor space                    : YUV\nChroma subsampling             : 4:2:0\nBit depth                      : 8 bits\nScan type                      : Progressive\nBits/(Pixel*Frame)             : 0.128\nStream size                    : 968 MiB (87%)\nWriting library                : x264 core 60 r900 a9af942\n \n\nAudio\nID                             : 2\nFormat                         : AC-3\nFormat/Info                    : Audio Coding 3\nMode extension                 : CM (complete main)\nFormat settings, Endianness    : Big\nCodec ID                       : A_AC3\nDuration                       : 46mn 48s\nBit rate mode                  : Constant\nBit rate                       : 384 Kbps\nChannel(s)                     : 6 channels\nChannel positions              : Front: L C R, Side: L R, LFE\nSampling rate                  : 48.0 KHz\nBit depth                      : 16 bits\nCompression mode               : Lossy\nStream size                    : 129 MiB (11%)\nLanguage                       : Danish\nDefault                        : Yes\nForced                         : No\n","torrent":{"xt":"urn:btih:2bb6e90cd9b0787231632f38b7d13fd10e8c3a34","amp;dn":"National+Geographic+Brilliant+Beasts+Pigeon+Genius+720p+HDTV+x26","amp;tr":["udp%3A%2F%2Ftracker.openbittorrent.com%3A80","udp%3A%2F%2Fopen.demonii.com%3A1337","udp%3A%2F%2Ftracker.coppersurfer.tk%3A6969","udp%3A%2F%2Fexodus.desync.com%3A6969"],"infoHash":"2bb6e90cd9b0787231632f38b7d13fd10e8c3a34","infoHashBuffer":{"type":"Buffer","data":[43,182,233,12,217,176,120,114,49,99,47,56,183,209,63,209,14,140,58,52]},"announce":[],"urlList":[]}}